<svg width="92" height="30" viewBox="0 0 92 30" fill="none" xmlns="http://www.w3.org/2000/svg">
<path d="M35.353 22.0001C34.8348 20.8981 34.323 19.7518 33.8175 18.5611C33.312 17.3704 32.8318 16.1924 32.3769 15.0271C31.9219 13.8618 31.4986 12.7471 31.1068 11.6831C30.7277 10.6191 30.3991 9.6691 30.1211 8.8331H33.3815C33.6343 9.5931 33.906 10.4164 34.1967 11.3031C34.5 12.1771 34.8032 13.0511 35.1065 13.9251C35.4225 14.7991 35.7258 15.6351 36.0164 16.4331C36.3071 17.2311 36.5788 17.9214 36.8315 18.5041C37.0717 17.9214 37.337 17.2311 37.6277 16.4331C37.931 15.6351 38.2343 14.7991 38.5376 13.9251C38.8535 13.0511 39.1568 12.1771 39.4475 11.3031C39.7508 10.4164 40.0288 9.5931 40.2816 8.8331H43.4283C43.1376 9.6691 42.8027 10.6191 42.4236 11.6831C42.0445 12.7471 41.6274 13.8618 41.1725 15.0271C40.7175 16.1924 40.2373 17.3704 39.7318 18.5611C39.2263 19.7518 38.7145 20.8981 38.1964 22.0001H35.353Z" fill="#6B38FF"/>
<path d="M48.9763 8.6811C50.9478 8.6811 52.4579 9.03577 53.5068 9.7451C54.5557 10.4418 55.0802 11.5311 55.0802 13.0131C55.0802 13.9378 54.8654 14.6914 54.4357 15.2741C54.0187 15.8441 53.4121 16.2938 52.6159 16.6231C52.8813 16.9524 53.1593 17.3324 53.45 17.7631C53.7406 18.1811 54.025 18.6244 54.303 19.0931C54.5937 19.5491 54.8717 20.0304 55.1371 20.5371C55.4024 21.0311 55.6489 21.5188 55.8763 22.0001H52.559C52.3189 21.5694 52.0725 21.1324 51.8197 20.6891C51.5796 20.2458 51.3269 19.8151 51.0615 19.3971C50.8088 18.9791 50.556 18.5864 50.3033 18.2191C50.0505 17.8391 49.7978 17.4971 49.545 17.1931H48.0854V22.0001H45.1282V9.0231C45.7728 8.89644 46.4362 8.80777 47.1186 8.7571C47.8137 8.70644 48.4329 8.6811 48.9763 8.6811ZM49.1469 11.2081C48.9321 11.2081 48.7362 11.2144 48.5593 11.2271C48.395 11.2398 48.237 11.2524 48.0854 11.2651V14.8371H48.9195C50.0316 14.8371 50.8277 14.6978 51.3079 14.4191C51.7882 14.1404 52.0283 13.6654 52.0283 12.9941C52.0283 12.3481 51.7818 11.8921 51.289 11.6261C50.8088 11.3474 50.0947 11.2081 49.1469 11.2081Z" fill="#6B38FF"/>
<path d="M60.4067 22.0001H57.5822V12.0061H60.4067V22.0001ZM60.6721 9.1181C60.6721 9.63744 60.5015 10.0491 60.1603 10.3531C59.8317 10.6444 59.4399 10.7901 58.985 10.7901C58.5301 10.7901 58.132 10.6444 57.7908 10.3531C57.4622 10.0491 57.2979 9.63744 57.2979 9.1181C57.2979 8.59877 57.4622 8.19344 57.7908 7.9021C58.132 7.5981 58.5301 7.4461 58.985 7.4461C59.4399 7.4461 59.8317 7.5981 60.1603 7.9021C60.5015 8.19344 60.6721 8.59877 60.6721 9.1181Z" fill="#6B38FF"/>
<path d="M65.4692 16.6801C65.4692 18.2634 66.1074 19.0551 67.3837 19.0551C67.6744 19.0551 67.9461 19.0171 68.1988 18.9411C68.4516 18.8651 68.6664 18.7764 68.8433 18.6751V14.1531C68.7043 14.1278 68.5401 14.1088 68.3505 14.0961C68.1609 14.0708 67.9398 14.0581 67.687 14.0581C66.9414 14.0581 66.3854 14.3051 66.0189 14.7991C65.6524 15.2931 65.4692 15.9201 65.4692 16.6801ZM71.6678 20.7461C71.6678 22.3801 71.2508 23.5898 70.4167 24.3751C69.5953 25.1731 68.3189 25.5721 66.5876 25.5721C65.981 25.5721 65.3744 25.5151 64.7678 25.4011C64.1612 25.2998 63.5988 25.1604 63.0807 24.9831L63.5736 22.6081C64.0159 22.7854 64.4771 22.9248 64.9574 23.0261C65.4502 23.1274 66.0063 23.1781 66.6255 23.1781C67.4343 23.1781 68.003 23.0008 68.3315 22.6461C68.6727 22.2914 68.8433 21.8354 68.8433 21.2781V20.9171C68.5401 21.0564 68.2241 21.1641 67.8955 21.2401C67.5796 21.3034 67.2321 21.3351 66.853 21.3351C65.4755 21.3351 64.4203 20.9298 63.6873 20.1191C62.9543 19.2958 62.5878 18.1494 62.5878 16.6801C62.5878 15.9454 62.7016 15.2804 62.929 14.6851C63.1565 14.0771 63.4851 13.5578 63.9148 13.1271C64.3571 12.6964 64.8942 12.3671 65.526 12.1391C66.1579 11.8984 66.8719 11.7781 67.6681 11.7781C68.0093 11.7781 68.3568 11.7971 68.7107 11.8351C69.0771 11.8604 69.4373 11.8984 69.7911 11.9491C70.145 11.9998 70.4799 12.0631 70.7958 12.1391C71.1244 12.2024 71.4151 12.2721 71.6678 12.3481V20.7461Z" fill="#6B38FF"/>
<path d="M74.3169 22.0001V7.7121L77.1414 7.2561V12.0441C77.3309 11.9808 77.571 11.9238 77.8617 11.8731C78.165 11.8098 78.4557 11.7781 78.7337 11.7781C79.5425 11.7781 80.2123 11.8921 80.743 12.1201C81.2864 12.3354 81.7161 12.6458 82.032 13.0511C82.3606 13.4564 82.5881 13.9378 82.7145 14.4951C82.8535 15.0524 82.923 15.6731 82.923 16.3571V22.0001H80.0985V16.6991C80.0985 15.7871 79.9785 15.1411 79.7384 14.7611C79.5109 14.3811 79.0812 14.1911 78.4493 14.1911C78.1966 14.1911 77.9565 14.2164 77.729 14.2671C77.5142 14.3051 77.3183 14.3494 77.1414 14.4001V22.0001H74.3169Z" fill="#6B38FF"/>
<path d="M85.3848 9.5171L88.2092 9.0611V12.0061H91.6024V14.3621H88.2092V17.8771C88.2092 18.4724 88.3103 18.9474 88.5125 19.3021C88.7273 19.6568 89.1507 19.8341 89.7826 19.8341C90.0859 19.8341 90.3955 19.8088 90.7114 19.7581C91.04 19.6948 91.337 19.6124 91.6024 19.5111L92.0004 21.7151C91.6592 21.8544 91.2801 21.9748 90.8631 22.0761C90.446 22.1774 89.9342 22.2281 89.3276 22.2281C88.5567 22.2281 87.9186 22.1268 87.4131 21.9241C86.9076 21.7088 86.5032 21.4174 86.1999 21.0501C85.8966 20.6701 85.6817 20.2141 85.5554 19.6821C85.4416 19.1501 85.3848 18.5611 85.3848 17.9151V9.5171Z" fill="#6B38FF"/>
<path d="M13.369 4.25V0H0V29.2H13.369V24.95C10.6304 24.95 8.00386 23.8595 6.06739 21.9185C4.13087 19.9775 3.04295 17.345 3.04295 14.6C3.04295 11.855 4.13087 9.22241 6.06739 7.28145C8.00386 5.34045 10.6304 4.25 13.369 4.25Z" fill="#6B38FF"/>
<path d="M13.3691 4.25V24.95C16.1078 24.95 18.7343 23.8595 20.6708 21.9185C22.6073 19.9775 23.6952 17.345 23.6952 14.6C23.6952 11.855 22.6073 9.22241 20.6708 7.28145C18.7343 5.34045 16.1078 4.25 13.3691 4.25Z" fill="#6B38FF"/>
</svg>
